<?xml version="1.0" encoding="iso-8859-1"?>
<!-- Generator: Adobe Illustrator 19.0.0, SVG Export Plug-In . SVG Version: 6.00 Build 0)  -->
<svg version="1.1" id="Capa_1" xmlns="http://www.w3.org/2000/svg" xmlns:xlink="http://www.w3.org/1999/xlink" x="0px" y="0px"
	 viewBox="0 0 512.001 512.001" style="enable-background:new 0 0 512.001 512.001;" xml:space="preserve">
<path style="fill:#FFE475;" d="M309.662,506.005c-2.014,0-4.048-0.411-5.975-1.26l-47.688-21.02l-47.687,21.02
	c-5.988,2.639-12.993,1.042-17.246-3.928l-33.885-39.602l-52.085-1.837c-6.528-0.23-12.138-4.707-13.81-11.022l-13.339-50.373
	l-46.161-24.178c-5.795-3.034-8.916-9.509-7.681-15.933l9.842-51.18L2.916,264.83c-3.887-5.244-3.887-12.414,0-17.658l31.032-41.863
	l-9.841-51.18c-1.236-6.425,1.886-12.898,7.681-15.933l46.163-24.178L91.29,63.645c1.672-6.315,7.281-10.791,13.81-11.022
	l52.085-1.837l33.884-39.602c4.253-4.971,11.26-6.566,17.246-3.928l47.687,21.02l47.686-21.019
	c5.986-2.639,12.993-1.043,17.246,3.928l33.885,39.602l52.085,1.837c6.528,0.23,12.138,4.707,13.81,11.022l13.339,50.372
	l46.162,24.178c5.795,3.035,8.916,9.509,7.681,15.933l-9.841,51.179l31.032,41.863c3.887,5.244,3.887,12.414,0,17.658
	l-31.032,41.862l9.841,51.18c1.236,6.425-1.886,12.898-7.681,15.933l-46.163,24.178l-13.339,50.373
	c-1.671,6.315-7.281,10.791-13.809,11.022l-52.085,1.837l-33.884,39.601C318.049,504.186,313.9,506.005,309.662,506.005z"/>
<g>
	<path style="fill:#FFB726;" d="M478.052,205.309l9.841-51.179c1.236-6.425-1.886-12.898-7.681-15.933l-46.162-24.178
		l-13.339-50.372c-1.672-6.315-7.281-10.791-13.81-11.022l-52.085-1.837L320.93,11.186c-4.253-4.97-11.26-6.567-17.246-3.928
		l-47.687,21.02v455.448l47.687,21.019c1.928,0.85,3.962,1.26,5.975,1.26c4.238,0,8.388-1.819,11.27-5.188l33.884-39.601
		l52.085-1.837c6.528-0.23,12.138-4.707,13.809-11.022l13.339-50.373l46.163-24.178c5.795-3.035,8.916-9.509,7.681-15.933
		l-9.841-51.18l31.032-41.862c3.887-5.244,3.887-12.414,0-17.658L478.052,205.309z"/>
	<path style="fill:#FFB726;" d="M255.999,424.033c-92.653,0-168.032-75.38-168.032-168.032c0-92.654,75.379-168.033,168.032-168.033
		S424.031,163.347,424.031,256C424.031,348.653,348.652,424.033,255.999,424.033z"/>
</g>
<path style="fill:#FC8B25;" d="M255.999,87.969v336.063c92.653,0,168.032-75.379,168.032-168.032
	C424.031,163.347,348.652,87.969,255.999,87.969z"/>
<path style="fill:#4FD9E0;" d="M166.88,284.668L166.88,284.668c-29.916,0-54.167-24.251-54.167-54.167v-39.759h108.335V230.5
	C221.047,260.416,196.796,284.668,166.88,284.668z"/>
<path style="fill:#16A9C7;" d="M345.126,284.668L345.126,284.668c-29.916,0-54.168-24.251-54.168-54.167v-39.759h108.335V230.5
	C399.293,260.416,375.042,284.668,345.126,284.668z"/>
<g>
	<path style="fill:#36569C;" d="M422.775,175.916H89.231c-8.188,0-14.826,6.638-14.826,14.826s6.638,14.826,14.826,14.826h8.655
		V230.5c0,38.043,30.95,68.994,68.994,68.994s68.994-30.95,68.994-68.994v-24.932h40.259V230.5c0,38.043,30.95,68.994,68.994,68.994
		s68.994-30.95,68.994-68.994v-24.932h8.655c8.188,0,14.826-6.638,14.826-14.826S430.963,175.916,422.775,175.916z M206.221,230.5
		c0,21.692-17.648,39.341-39.341,39.341c-21.692,0-39.341-17.648-39.341-39.341v-24.932h78.683V230.5z M384.467,230.5
		c0,21.692-17.648,39.341-39.341,39.341c-21.693,0-39.341-17.648-39.341-39.341v-24.932h78.683L384.467,230.5L384.467,230.5z"/>
	<path style="fill:#36569C;" d="M256.002,366.701c-14.785,0-28.684-5.757-39.139-16.212c-5.789-5.79-5.789-15.177,0-20.967
		c5.79-5.789,15.178-5.789,20.967,0c4.854,4.854,11.306,7.527,18.171,7.527c6.864,0,13.318-2.674,18.171-7.527
		c5.79-5.79,15.177-5.79,20.967,0s5.79,15.177,0,20.967C284.687,360.943,270.787,366.701,256.002,366.701z"/>
</g>
<g>
	<path style="fill:#193359;" d="M274.174,329.522c-4.854,4.854-11.306,7.527-18.171,7.527c-0.001,0-0.002,0-0.003,0V366.7
		c0.001,0,0.002,0,0.003,0c14.785,0,28.684-5.757,39.139-16.212c5.789-5.79,5.789-15.177,0-20.967
		C289.351,323.733,279.964,323.732,274.174,329.522z"/>
	<path style="fill:#193359;" d="M422.775,175.916H255.999v29.652h20.133V230.5c0,38.043,30.95,68.994,68.994,68.994
		s68.994-30.95,68.994-68.994v-24.932h8.655c8.188,0,14.826-6.638,14.826-14.826S430.963,175.916,422.775,175.916z M384.467,230.5
		c0,21.692-17.648,39.341-39.341,39.341c-21.693,0-39.341-17.648-39.341-39.341v-24.932h78.683L384.467,230.5L384.467,230.5z"/>
</g>
<g>
</g>
<g>
</g>
<g>
</g>
<g>
</g>
<g>
</g>
<g>
</g>
<g>
</g>
<g>
</g>
<g>
</g>
<g>
</g>
<g>
</g>
<g>
</g>
<g>
</g>
<g>
</g>
<g>
</g>
</svg>
